<svg width="289" height="51" viewBox="0 0 289 51" fill="none" xmlns="http://www.w3.org/2000/svg">
<g clip-path="url(#clip0_771_10019)">
<path d="M37.5586 38.3055H18.9827C18.3373 38.306 17.6922 38.2738 17.05 38.2091C16.144 38.1175 15.246 37.9587 14.3635 37.7341C11.8153 35.2428 9.94715 32.1407 8.93714 28.7231C7.92713 25.3055 7.80883 21.6862 8.59353 18.21C8.54921 18.6062 8.52677 19.0045 8.5263 19.4032C8.52619 20.7764 8.79657 22.1362 9.32201 23.4049C9.84746 24.6736 10.6177 25.8263 11.5887 26.7973C12.5597 27.7683 13.7124 28.5385 14.9811 29.064C16.2498 29.5894 17.6095 29.8598 18.9827 29.8597H27.2976C29.7221 29.8589 32.0714 30.701 33.9433 32.2418C35.8152 33.7825 37.0932 35.9261 37.5586 38.3055Z" fill="white"/>
<path d="M37.5586 0.500005C37.0933 2.87937 35.8152 5.02296 33.9433 6.56372C32.0714 8.10449 29.7221 8.94659 27.2977 8.94583H18.9828C16.4155 8.94423 13.9374 9.88772 12.0213 11.5963C10.1051 13.305 8.88497 15.6592 8.59355 18.2099C7.80404 21.686 7.91996 25.3065 8.93024 28.725C9.94051 32.1435 11.8113 35.2455 14.3636 37.734C6.15658 35.6756 0.0805054 28.2506 0.0805054 19.4031C0.0805054 9.61367 7.51792 1.56414 17.05 0.596423C17.6922 0.531701 18.3373 0.499521 18.9828 0.500005H37.5586Z" fill="white"/>
<path d="M37.8859 19.4033C37.8923 23.124 36.7948 26.763 34.7324 29.8597C34.2943 30.5198 33.8145 31.1512 33.2959 31.7501C31.5381 30.5168 29.4423 29.8566 27.295 29.8597H18.9801C20.3614 29.8724 21.7315 29.6113 23.0114 29.0915C24.2912 28.5717 25.4554 27.8035 26.4366 26.8312C27.4179 25.859 28.1968 24.7019 28.7284 23.4269C29.2599 22.1519 29.5336 20.7842 29.5336 19.4029C29.5336 18.0215 29.2599 16.6538 28.7284 15.3788C28.1968 14.1038 27.4179 12.9468 26.4366 11.9745C25.4554 11.0022 24.2912 10.234 23.0114 9.71418C21.7315 9.19437 20.3614 8.93328 18.9801 8.94598H27.295C29.4423 8.94911 31.5381 8.28891 33.2959 7.05566C33.8145 7.65513 34.2944 8.28711 34.7324 8.94775C36.7946 12.0443 37.892 15.6829 37.8859 19.4033Z" fill="white"/>
<path d="M0 50.2098C0 50.3062 -2.15839e-07 50.4035 0.00530717 50.4999H29.0995C31.3555 50.4994 33.519 49.6028 35.1139 48.0074C36.7089 46.4119 37.6048 44.2482 37.6046 41.9922C37.6046 41.8957 37.6046 41.802 37.5993 41.7056H8.50774C7.39072 41.7053 6.28459 41.9251 5.25251 42.3524C4.22043 42.7796 3.28261 43.406 2.49259 44.1957C1.70257 44.9853 1.07583 45.9229 0.648155 46.9548C0.220475 47.9867 0.000232301 49.0927 0 50.2098Z" fill="white"/>
<path d="M37.5586 0.5C37.0932 2.87937 35.8152 5.02296 33.9433 6.56372C32.0714 8.10448 29.7221 8.94658 27.2976 8.94582H18.9827C16.4154 8.94422 13.9374 9.88772 12.0212 11.5963C10.1051 13.305 8.88493 15.6592 8.59352 18.2099C7.804 21.686 7.91992 25.3065 8.9302 28.725C9.94047 32.1435 11.8113 35.2455 14.3635 37.734C12.6659 37.2173 11.0906 36.3618 9.73284 35.2192C2.60679 29.1466 2.42368 14.8043 8.66074 9.7437C11.7505 7.23861 16.4246 7.00774 20.7262 6.79456C25.2516 6.57077 27.1756 7.38014 30.3786 6.25851C33.8531 5.04755 36.1495 2.49646 37.5586 0.5Z" fill="white"/>
<path d="M37.5586 38.3055H18.9827C18.3373 38.306 17.6922 38.2738 17.05 38.2091C16.144 38.1175 15.246 37.9587 14.3635 37.7341C11.8153 35.2428 9.94715 32.1407 8.93714 28.7231C7.92713 25.3055 7.80883 21.6862 8.59353 18.21C8.56699 18.4966 8.53692 18.9079 8.5263 19.4032C8.42988 23.9207 10.1106 30.6823 14.291 33.6138C20.3423 37.8552 27.8761 31.4395 35.7408 36.8309C36.3853 37.2729 36.9932 37.766 37.5586 38.3055Z" fill="white"/>
<path d="M37.8859 19.4033C37.8923 23.124 36.7948 26.763 34.7324 29.8597C34.2943 30.5198 33.8145 31.1512 33.2959 31.7501C31.5381 30.5168 29.4423 29.8566 27.295 29.8597H18.9801C20.6263 29.8155 23.6833 29.5103 26.8899 27.7147C27.9514 27.122 33.5931 23.9606 34.9341 17.2582C35.9222 12.3188 33.9938 8.34978 33.2932 7.05566C33.8128 7.65505 34.2935 8.28703 34.7324 8.94775C36.7946 12.0443 37.892 15.6829 37.8859 19.4033Z" fill="white"/>
<path d="M0 50.2098C0 50.2823 0 50.3548 0 50.3548C0 50.4035 0 50.4513 0 50.4999H29.0995C31.3555 50.4994 33.519 49.6028 35.1139 48.0074C36.7089 46.4119 37.6048 44.2482 37.6046 41.9922C37.6046 41.8957 37.6046 41.802 37.5993 41.7056C36.573 42.7418 35.4057 43.628 34.1318 44.338C25.1605 49.3155 13.3737 43.6543 5.1747 46.4831C1.60195 47.7162 0 50.116 0 50.2098Z" fill="white"/>
</g>
<path d="M73.7705 21.2812C73.5915 20.6591 73.3401 20.1094 73.0163 19.6321C72.6924 19.1463 72.2961 18.7372 71.8273 18.4048C71.3671 18.0639 70.8387 17.804 70.2421 17.625C69.654 17.446 69.002 17.3565 68.2861 17.3565C66.9481 17.3565 65.7719 17.6889 64.7577 18.3537C63.752 19.0185 62.968 19.9858 62.4055 21.2557C61.843 22.517 61.5617 24.0597 61.5617 25.8835C61.5617 27.7074 61.8387 29.2585 62.3927 30.5369C62.9466 31.8153 63.7307 32.7912 64.7449 33.4645C65.7591 34.1293 66.9566 34.4616 68.3373 34.4616C69.5901 34.4616 70.6597 34.2401 71.5461 33.7969C72.441 33.3452 73.1228 32.7102 73.5915 31.892C74.0688 31.0739 74.3074 30.1065 74.3074 28.9901L75.4324 29.1562H68.6824V24.9886H79.6384V28.2869C79.6384 30.5881 79.1526 32.5653 78.181 34.2188C77.2094 35.8636 75.8714 37.1335 74.1668 38.0284C72.4623 38.9148 70.5106 39.358 68.3117 39.358C65.8572 39.358 63.7009 38.8168 61.843 37.7344C59.985 36.6435 58.5361 35.0966 57.4964 33.0938C56.4651 31.0824 55.9495 28.696 55.9495 25.9347C55.9495 23.8125 56.2563 21.9205 56.8699 20.2585C57.4921 18.5881 58.3614 17.1733 59.4779 16.0142C60.5944 14.8551 61.8941 13.973 63.377 13.3679C64.86 12.7628 66.4665 12.4602 68.1966 12.4602C69.6796 12.4602 71.0603 12.6776 72.3387 13.1122C73.6171 13.5384 74.7506 14.1435 75.7393 14.9276C76.7364 15.7116 77.5503 16.6449 78.181 17.7273C78.8117 18.8011 79.2165 19.9858 79.3955 21.2812H73.7705ZM93.363 39.3835C91.3431 39.3835 89.6045 38.9744 88.1471 38.1562C86.6983 37.3295 85.5818 36.1619 84.7977 34.6534C84.0136 33.1364 83.6215 31.3423 83.6215 29.2713C83.6215 27.2514 84.0136 25.4787 84.7977 23.9531C85.5818 22.4276 86.6855 21.2386 88.1088 20.3864C89.5406 19.5341 91.2196 19.108 93.1457 19.108C94.4412 19.108 95.6471 19.3168 96.7636 19.7344C97.8886 20.1435 98.8687 20.7614 99.7039 21.5881C100.548 22.4148 101.204 23.4545 101.673 24.7074C102.141 25.9517 102.376 27.4091 102.376 29.0795V30.5753H85.7948V27.2003H97.2494C97.2494 26.4162 97.0789 25.7216 96.738 25.1165C96.3971 24.5114 95.9241 24.0384 95.319 23.6974C94.7224 23.348 94.0278 23.1733 93.2352 23.1733C92.4085 23.1733 91.6755 23.3651 91.0363 23.7486C90.4056 24.1236 89.9113 24.6307 89.5534 25.2699C89.1954 25.9006 89.0122 26.6037 89.0037 27.3793V30.5881C89.0037 31.5597 89.1826 32.3991 89.5406 33.1065C89.9071 33.8139 90.4227 34.3594 91.0875 34.7429C91.7522 35.1264 92.5406 35.3182 93.4525 35.3182C94.0576 35.3182 94.6116 35.233 95.1144 35.0625C95.6173 34.892 96.0477 34.6364 96.4056 34.2955C96.7636 33.9545 97.0363 33.5369 97.2238 33.0426L102.261 33.375C102.005 34.5852 101.481 35.642 100.688 36.5455C99.9042 37.4403 98.89 38.1392 97.6457 38.642C96.4099 39.1364 94.9823 39.3835 93.363 39.3835ZM115.522 39.3835C113.536 39.3835 111.819 38.9616 110.37 38.1179C108.93 37.2656 107.817 36.081 107.033 34.5639C106.249 33.0384 105.857 31.2699 105.857 29.2585C105.857 27.2301 106.249 25.4574 107.033 23.9403C107.817 22.4148 108.93 21.2301 110.37 20.3864C111.819 19.5341 113.536 19.108 115.522 19.108C117.508 19.108 119.221 19.5341 120.661 20.3864C122.11 21.2301 123.226 22.4148 124.011 23.9403C124.795 25.4574 125.187 27.2301 125.187 29.2585C125.187 31.2699 124.795 33.0384 124.011 34.5639C123.226 36.081 122.11 37.2656 120.661 38.1179C119.221 38.9616 117.508 39.3835 115.522 39.3835ZM115.548 35.1648C116.451 35.1648 117.205 34.9091 117.81 34.3977C118.415 33.8778 118.871 33.1705 119.178 32.2756C119.494 31.3807 119.651 30.3622 119.651 29.2202C119.651 28.0781 119.494 27.0597 119.178 26.1648C118.871 25.2699 118.415 24.5625 117.81 24.0426C117.205 23.5227 116.451 23.2628 115.548 23.2628C114.636 23.2628 113.869 23.5227 113.246 24.0426C112.633 24.5625 112.168 25.2699 111.853 26.1648C111.546 27.0597 111.393 28.0781 111.393 29.2202C111.393 30.3622 111.546 31.3807 111.853 32.2756C112.168 33.1705 112.633 33.8778 113.246 34.3977C113.869 34.9091 114.636 35.1648 115.548 35.1648ZM129.448 39V19.3636H134.638V22.8281H134.868C135.277 21.6776 135.959 20.7699 136.914 20.1051C137.868 19.4403 139.01 19.108 140.34 19.108C141.687 19.108 142.833 19.4446 143.779 20.1179C144.725 20.7827 145.356 21.6861 145.671 22.8281H145.875C146.276 21.7031 147 20.804 148.049 20.1307C149.106 19.4489 150.354 19.108 151.795 19.108C153.627 19.108 155.114 19.6918 156.256 20.8594C157.407 22.0185 157.982 23.6634 157.982 25.794V39H152.549V26.8679C152.549 25.777 152.259 24.9588 151.679 24.4134C151.1 23.8679 150.375 23.5952 149.506 23.5952C148.518 23.5952 147.746 23.9105 147.192 24.5412C146.638 25.1634 146.361 25.9858 146.361 27.0085V39H141.081V26.7528C141.081 25.7898 140.804 25.0227 140.25 24.4517C139.705 23.8807 138.985 23.5952 138.09 23.5952C137.485 23.5952 136.939 23.7486 136.454 24.0554C135.976 24.3537 135.597 24.7756 135.316 25.321C135.035 25.858 134.894 26.4886 134.894 27.2131V39H129.448ZM168.603 39.3707C167.35 39.3707 166.234 39.1534 165.254 38.7188C164.274 38.2756 163.498 37.6236 162.927 36.7628C162.365 35.8935 162.083 34.8111 162.083 33.5156C162.083 32.4247 162.284 31.5085 162.684 30.767C163.085 30.0256 163.63 29.429 164.321 28.9773C165.011 28.5256 165.795 28.1847 166.673 27.9545C167.559 27.7244 168.488 27.5625 169.46 27.4688C170.602 27.3494 171.522 27.2386 172.221 27.1364C172.92 27.0256 173.427 26.8636 173.742 26.6506C174.058 26.4375 174.215 26.1222 174.215 25.7045V25.6278C174.215 24.8182 173.96 24.1918 173.448 23.7486C172.946 23.3054 172.23 23.0838 171.301 23.0838C170.321 23.0838 169.541 23.3011 168.961 23.7358C168.382 24.1619 167.998 24.6989 167.811 25.3466L162.774 24.9375C163.029 23.7443 163.532 22.7131 164.282 21.8438C165.032 20.9659 166 20.2926 167.184 19.8239C168.377 19.3466 169.758 19.108 171.326 19.108C172.417 19.108 173.461 19.2358 174.458 19.4915C175.464 19.7472 176.355 20.1435 177.13 20.6804C177.914 21.2173 178.532 21.9077 178.984 22.7514C179.436 23.5866 179.662 24.5881 179.662 25.7557V39H174.497V36.277H174.343C174.028 36.8906 173.606 37.4318 173.078 37.9006C172.549 38.3608 171.914 38.723 171.173 38.9872C170.431 39.2429 169.575 39.3707 168.603 39.3707ZM170.163 35.6122C170.964 35.6122 171.671 35.4545 172.285 35.1392C172.899 34.8153 173.38 34.3807 173.73 33.8352C174.079 33.2898 174.254 32.6719 174.254 31.9815V29.8977C174.083 30.0085 173.849 30.1108 173.551 30.2045C173.261 30.2898 172.933 30.3707 172.566 30.4474C172.2 30.5156 171.833 30.5795 171.467 30.6392C171.1 30.6903 170.768 30.7372 170.47 30.7798C169.831 30.8736 169.272 31.0227 168.795 31.2273C168.318 31.4318 167.947 31.7088 167.683 32.0582C167.419 32.3991 167.287 32.8253 167.287 33.3366C167.287 34.0781 167.555 34.6449 168.092 35.0369C168.637 35.4205 169.328 35.6122 170.163 35.6122ZM195.051 19.3636V23.4545H183.226V19.3636H195.051ZM185.911 14.6591H191.357V32.9659C191.357 33.4687 191.433 33.8608 191.587 34.142C191.74 34.4148 191.953 34.6065 192.226 34.7173C192.507 34.8281 192.831 34.8835 193.198 34.8835C193.453 34.8835 193.709 34.8622 193.965 34.8196C194.22 34.7685 194.416 34.7301 194.553 34.7045L195.409 38.7571C195.137 38.8423 194.753 38.9403 194.259 39.0511C193.764 39.1705 193.163 39.2429 192.456 39.2685C191.144 39.3196 189.993 39.1449 189.004 38.7443C188.024 38.3437 187.262 37.7216 186.716 36.8778C186.171 36.0341 185.902 34.9687 185.911 33.6818V14.6591ZM205.187 27.6477V39H199.741V12.8182H205.033V22.8281H205.263C205.707 21.669 206.423 20.7614 207.411 20.1051C208.4 19.4403 209.64 19.108 211.131 19.108C212.495 19.108 213.684 19.4062 214.698 20.0028C215.721 20.5909 216.513 21.4389 217.076 22.5469C217.647 23.6463 217.928 24.9631 217.92 26.4972V39H212.474V27.4688C212.482 26.2585 212.175 25.3168 211.553 24.6435C210.94 23.9702 210.079 23.6335 208.971 23.6335C208.229 23.6335 207.573 23.7912 207.002 24.1065C206.44 24.4219 205.996 24.8821 205.673 25.4872C205.357 26.0838 205.195 26.804 205.187 27.6477ZM228.525 39.3707C227.272 39.3707 226.156 39.1534 225.176 38.7188C224.195 38.2756 223.42 37.6236 222.849 36.7628C222.286 35.8935 222.005 34.8111 222.005 33.5156C222.005 32.4247 222.205 31.5085 222.606 30.767C223.007 30.0256 223.552 29.429 224.242 28.9773C224.933 28.5256 225.717 28.1847 226.595 27.9545C227.481 27.7244 228.41 27.5625 229.382 27.4688C230.524 27.3494 231.444 27.2386 232.143 27.1364C232.842 27.0256 233.349 26.8636 233.664 26.6506C233.98 26.4375 234.137 26.1222 234.137 25.7045V25.6278C234.137 24.8182 233.882 24.1918 233.37 23.7486C232.867 23.3054 232.151 23.0838 231.222 23.0838C230.242 23.0838 229.462 23.3011 228.883 23.7358C228.303 24.1619 227.92 24.6989 227.732 25.3466L222.695 24.9375C222.951 23.7443 223.454 22.7131 224.204 21.8438C224.954 20.9659 225.921 20.2926 227.106 19.8239C228.299 19.3466 229.68 19.108 231.248 19.108C232.339 19.108 233.383 19.2358 234.38 19.4915C235.386 19.7472 236.276 20.1435 237.052 20.6804C237.836 21.2173 238.454 21.9077 238.906 22.7514C239.357 23.5866 239.583 24.5881 239.583 25.7557V39H234.418V36.277H234.265C233.95 36.8906 233.528 37.4318 232.999 37.9006C232.471 38.3608 231.836 38.723 231.095 38.9872C230.353 39.2429 229.497 39.3707 228.525 39.3707ZM230.085 35.6122C230.886 35.6122 231.593 35.4545 232.207 35.1392C232.82 34.8153 233.302 34.3807 233.651 33.8352C234.001 33.2898 234.176 32.6719 234.176 31.9815V29.8977C234.005 30.0085 233.771 30.1108 233.472 30.2045C233.183 30.2898 232.855 30.3707 232.488 30.4474C232.122 30.5156 231.755 30.5795 231.389 30.6392C231.022 30.6903 230.69 30.7372 230.391 30.7798C229.752 30.8736 229.194 31.0227 228.717 31.2273C228.239 31.4318 227.869 31.7088 227.605 32.0582C227.34 32.3991 227.208 32.8253 227.208 33.3366C227.208 34.0781 227.477 34.6449 228.014 35.0369C228.559 35.4205 229.249 35.6122 230.085 35.6122ZM244.528 46.3636V19.3636H249.898V22.6619H250.141C250.379 22.1335 250.724 21.5966 251.176 21.0511C251.636 20.4972 252.233 20.0369 252.966 19.6705C253.707 19.2955 254.628 19.108 255.727 19.108C257.159 19.108 258.48 19.483 259.69 20.233C260.901 20.9744 261.868 22.0952 262.592 23.5952C263.317 25.0866 263.679 26.9574 263.679 29.2074C263.679 31.3977 263.325 33.2472 262.618 34.7557C261.919 36.2557 260.964 37.3935 259.754 38.169C258.553 38.9361 257.206 39.3196 255.714 39.3196C254.658 39.3196 253.758 39.1449 253.017 38.7955C252.284 38.446 251.683 38.0071 251.214 37.4787C250.746 36.9418 250.388 36.4006 250.141 35.8551H249.974V46.3636H244.528ZM249.859 29.1818C249.859 30.3494 250.021 31.3679 250.345 32.2372C250.669 33.1065 251.138 33.7841 251.751 34.2699C252.365 34.7472 253.111 34.9858 253.989 34.9858C254.875 34.9858 255.625 34.7429 256.239 34.2571C256.852 33.7628 257.317 33.081 257.632 32.2116C257.956 31.3338 258.118 30.3239 258.118 29.1818C258.118 28.0483 257.96 27.0511 257.645 26.1903C257.33 25.3295 256.865 24.6562 256.251 24.1705C255.638 23.6847 254.883 23.4418 253.989 23.4418C253.102 23.4418 252.352 23.6761 251.739 24.1449C251.133 24.6136 250.669 25.2784 250.345 26.1392C250.021 27 249.859 28.0142 249.859 29.1818ZM268.03 46.3636V19.3636H273.399V22.6619H273.642C273.88 22.1335 274.226 21.5966 274.677 21.0511C275.138 20.4972 275.734 20.0369 276.467 19.6705C277.209 19.2955 278.129 19.108 279.228 19.108C280.66 19.108 281.981 19.483 283.192 20.233C284.402 20.9744 285.369 22.0952 286.094 23.5952C286.818 25.0866 287.18 26.9574 287.18 29.2074C287.18 31.3977 286.826 33.2472 286.119 34.7557C285.42 36.2557 284.466 37.3935 283.255 38.169C282.054 38.9361 280.707 39.3196 279.216 39.3196C278.159 39.3196 277.26 39.1449 276.518 38.7955C275.785 38.446 275.184 38.0071 274.716 37.4787C274.247 36.9418 273.889 36.4006 273.642 35.8551H273.476V46.3636H268.03ZM273.361 29.1818C273.361 30.3494 273.523 31.3679 273.846 32.2372C274.17 33.1065 274.639 33.7841 275.253 34.2699C275.866 34.7472 276.612 34.9858 277.49 34.9858C278.376 34.9858 279.126 34.7429 279.74 34.2571C280.353 33.7628 280.818 33.081 281.133 32.2116C281.457 31.3338 281.619 30.3239 281.619 29.1818C281.619 28.0483 281.461 27.0511 281.146 26.1903C280.831 25.3295 280.366 24.6562 279.753 24.1705C279.139 23.6847 278.385 23.4418 277.49 23.4418C276.603 23.4418 275.853 23.6761 275.24 24.1449C274.635 24.6136 274.17 25.2784 273.846 26.1392C273.523 27 273.361 28.0142 273.361 29.1818Z" fill="white"/>
<defs>
<clipPath id="clip0_771_10019">
<rect width="37.8859" height="50" fill="white" transform="translate(0 0.5)"/>
</clipPath>
</defs>
</svg>
