<svg width="57" height="75" viewBox="0 0 57 75" fill="none" xmlns="http://www.w3.org/2000/svg">
<g clip-path="url(#clip0_769_9938)">
<path d="M56.4235 56.7082H28.5597C27.5915 56.709 26.6239 56.6607 25.6606 56.5636C24.3016 56.4263 22.9546 56.1881 21.6309 55.8511C17.8085 52.1142 15.0064 47.461 13.4913 42.3346C11.9763 37.2082 11.7989 31.7793 12.9759 26.5649C12.9094 27.1593 12.8758 27.7568 12.8751 28.3549C12.8749 30.4146 13.2805 32.4543 14.0687 34.3573C14.8568 36.2604 16.0121 37.9895 17.4686 39.446C18.9251 40.9025 20.6543 42.0578 22.5573 42.8459C24.4603 43.6341 26.4999 44.0397 28.5597 44.0395H41.0321C44.6688 44.0384 48.1927 45.3015 51.0006 47.6127C53.8084 49.9238 55.7255 53.1392 56.4235 56.7082Z" fill="url(#paint0_linear_769_9938)"/>
<path d="M56.4235 8.09344e-06C55.7254 3.56906 53.8084 6.78444 51.0005 9.09559C48.1927 11.4067 44.6687 12.6699 41.032 12.6687H28.5597C24.7087 12.6663 20.9917 14.0816 18.1174 16.6445C15.2432 19.2075 13.413 22.7387 12.9759 26.5648C11.7916 31.779 11.9655 37.2098 13.4809 42.3375C14.9963 47.4653 17.8025 52.1182 21.6309 55.851C9.32041 52.7634 0.206299 41.6258 0.206299 28.3547C0.206299 13.6705 11.3624 1.5962 25.6605 0.144634C26.6239 0.047551 27.5915 -0.000719049 28.5597 8.09344e-06H56.4235Z" fill="url(#paint1_linear_769_9938)"/>
<path d="M56.9144 28.3549C56.9239 33.936 55.2777 39.3944 52.1841 44.0396C51.5269 45.0296 50.8072 45.9767 50.0293 46.8751C47.3926 45.0252 44.2489 44.0349 41.028 44.0396H28.5557C30.6276 44.0587 32.6828 43.667 34.6026 42.8873C36.5223 42.1076 38.2686 40.9552 39.7405 39.4968C41.2124 38.0384 42.3807 36.3029 43.178 34.3904C43.9754 32.4779 44.3859 30.4263 44.3859 28.3543C44.3859 26.2822 43.9754 24.2307 43.178 22.3182C42.3807 20.4057 41.2124 18.6701 39.7405 17.2117C38.2686 15.7533 36.5223 14.601 34.6026 13.8213C32.6828 13.0416 30.6276 12.6499 28.5557 12.669H41.028C44.2489 12.6737 47.3926 11.6834 50.0293 9.8335C50.8073 10.7327 51.527 11.6807 52.1841 12.6716C55.2774 17.3165 56.9236 22.7744 56.9144 28.3549Z" fill="url(#paint2_linear_769_9938)"/>
<path d="M0.0855713 74.5649C0.0855713 74.7095 0.085571 74.8555 0.093532 75.0001H43.7348C47.1188 74.9994 50.364 73.6545 52.7565 71.2613C55.149 68.8681 56.4928 65.6225 56.4925 62.2385C56.4925 62.0939 56.4925 61.9532 56.4845 61.8086H12.8472C11.1716 61.8082 9.51246 62.1379 7.96434 62.7788C6.41622 63.4197 5.00948 64.3592 3.82446 65.5437C2.63943 66.7283 1.69932 68.1346 1.0578 69.6825C0.416284 71.2303 0.0859197 72.8894 0.0855713 74.5649Z" fill="url(#paint3_linear_769_9938)"/>
<path d="M56.4234 0C55.7254 3.56905 53.8083 6.78443 51.0005 9.09558C48.1926 11.4067 44.6687 12.6699 41.032 12.6687H28.5597C24.7087 12.6663 20.9916 14.0816 18.1174 16.6445C15.2432 19.2075 13.413 22.7387 12.9758 26.5648C11.7916 31.779 11.9655 37.2098 13.4809 42.3375C14.9963 47.4653 17.8025 52.1182 21.6309 55.851C19.0844 55.0759 16.7214 53.7927 14.6848 52.0787C3.99575 42.9699 3.72109 21.4564 13.0767 13.8655C17.7114 10.1079 24.7224 9.76161 31.1749 9.44184C37.963 9.10615 40.8489 10.3202 45.6534 8.63777C50.8653 6.82132 54.3098 2.99469 56.4234 0Z" fill="url(#paint4_linear_769_9938)"/>
<path d="M56.4235 56.7082H28.5597C27.5915 56.709 26.6239 56.6607 25.6606 56.5636C24.3016 56.4263 22.9546 56.1881 21.6309 55.8511C17.8085 52.1142 15.0064 47.461 13.4913 42.3346C11.9763 37.2082 11.7989 31.7793 12.9759 26.5649C12.9361 26.9948 12.891 27.6118 12.8751 28.3549C12.7305 35.1311 15.2515 45.2735 21.5221 49.6706C30.5991 56.0329 41.8999 46.4093 53.6968 54.4964C54.6636 55.1593 55.5755 55.899 56.4235 56.7082Z" fill="url(#paint5_linear_769_9938)"/>
<path d="M56.9144 28.3549C56.9239 33.936 55.2777 39.3944 52.1841 44.0396C51.5269 45.0296 50.8072 45.9767 50.0293 46.8751C47.3926 45.0252 44.2489 44.0349 41.028 44.0396H28.5557C31.0249 43.9733 35.6105 43.5155 40.4203 40.822C42.0125 39.933 50.4752 35.1909 52.4867 25.1373C53.9688 17.7282 51.0762 11.7747 50.0254 9.8335C50.8047 10.7326 51.5258 11.6805 52.1841 12.6716C55.2774 17.3165 56.9236 22.7744 56.9144 28.3549Z" fill="url(#paint6_linear_769_9938)"/>
<path d="M0.0855713 74.5649C0.0855713 74.6737 0.0855713 74.7825 0.0855713 74.7825C0.0855713 74.8555 0.0855713 74.9271 0.0855713 75.0001H43.7348C47.1188 74.9994 50.364 73.6545 52.7565 71.2613C55.149 68.8681 56.4928 65.6225 56.4925 62.2385C56.4925 62.0939 56.4925 61.9532 56.4845 61.8086C54.9451 63.3629 53.1941 64.6922 51.2833 65.7573C37.8264 73.2235 20.1462 64.7316 7.84762 68.9749C2.48849 70.8245 0.0855713 74.4242 0.0855713 74.5649Z" fill="url(#paint7_linear_769_9938)"/>
</g>
<defs>
<linearGradient id="paint0_linear_769_9938" x1="27.5911" y1="58.3814" x2="36.8034" y2="36.6795" gradientUnits="userSpaceOnUse">
<stop stop-color="#930C90"/>
<stop offset="0.61" stop-color="#CA0CBD"/>
<stop offset="1" stop-color="#E80CD6"/>
</linearGradient>
<linearGradient id="paint1_linear_769_9938" x1="28.3155" y1="8.09336e-06" x2="28.3155" y2="55.851" gradientUnits="userSpaceOnUse">
<stop stop-color="#5C3FCB"/>
<stop offset="0.17" stop-color="#5239B6"/>
<stop offset="0.53" stop-color="#3F2E8E"/>
<stop offset="0.82" stop-color="#332776"/>
<stop offset="1" stop-color="#2F246D"/>
</linearGradient>
<linearGradient id="paint2_linear_769_9938" x1="54.6308" y1="42.2736" x2="26.7936" y2="14.4363" gradientUnits="userSpaceOnUse">
<stop stop-color="#930C90"/>
<stop offset="0.34" stop-color="#841AA1"/>
<stop offset="0.99" stop-color="#5C3FCB"/>
</linearGradient>
<linearGradient id="paint3_linear_769_9938" x1="35.8613" y1="81.5202" x2="20.7167" y2="55.2871" gradientUnits="userSpaceOnUse">
<stop stop-color="#930C90"/>
<stop offset="0.34" stop-color="#841AA1"/>
<stop offset="0.99" stop-color="#5C3FCB"/>
</linearGradient>
<linearGradient id="paint4_linear_769_9938" x1="61.7109" y1="9.15789" x2="6.8604" y2="40.8257" gradientUnits="userSpaceOnUse">
<stop stop-color="#2F246D"/>
<stop offset="0.08" stop-color="#3C2C87"/>
<stop offset="0.19" stop-color="#4A34A5"/>
<stop offset="0.3" stop-color="#543ABA"/>
<stop offset="0.4" stop-color="#5A3EC7"/>
<stop offset="0.5" stop-color="#5C3FCB"/>
<stop offset="0.59" stop-color="#593DC4"/>
<stop offset="0.71" stop-color="#4F37B0"/>
<stop offset="0.87" stop-color="#402E90"/>
<stop offset="1" stop-color="#2F246D"/>
</linearGradient>
<linearGradient id="paint5_linear_769_9938" x1="53.3558" y1="62.0223" x2="7.7163" y2="35.6738" gradientUnits="userSpaceOnUse">
<stop stop-color="#930C90"/>
<stop offset="0.1" stop-color="#9E0C99"/>
<stop offset="0.28" stop-color="#BC0CB1"/>
<stop offset="0.5" stop-color="#E80CD6"/>
<stop offset="0.56" stop-color="#D40CC5"/>
<stop offset="0.67" stop-color="#B70CAE"/>
<stop offset="0.78" stop-color="#A30C9D"/>
<stop offset="0.89" stop-color="#970C93"/>
<stop offset="1" stop-color="#930C90"/>
</linearGradient>
<linearGradient id="paint6_linear_769_9938" x1="36.1107" y1="23.7521" x2="54.6309" y2="42.2736" gradientUnits="userSpaceOnUse">
<stop stop-color="#2F246D"/>
<stop offset="0.27" stop-color="#5D1E87"/>
<stop offset="0.87" stop-color="#CF0FC8"/>
<stop offset="1" stop-color="#E80CD6"/>
</linearGradient>
<linearGradient id="paint7_linear_769_9938" x1="41.9516" y1="82.0656" x2="17.113" y2="57.2283" gradientUnits="userSpaceOnUse">
<stop stop-color="#2F246D"/>
<stop offset="0.08" stop-color="#3C2C87"/>
<stop offset="0.19" stop-color="#4A34A5"/>
<stop offset="0.3" stop-color="#543ABA"/>
<stop offset="0.4" stop-color="#5A3EC7"/>
<stop offset="0.5" stop-color="#5C3FCB"/>
<stop offset="0.59" stop-color="#593DC4"/>
<stop offset="0.71" stop-color="#4F37B0"/>
<stop offset="0.87" stop-color="#402E90"/>
<stop offset="1" stop-color="#2F246D"/>
</linearGradient>
<clipPath id="clip0_769_9938">
<rect width="56.8288" height="75" fill="white" transform="translate(0.0855713)"/>
</clipPath>
</defs>
</svg>
